<?xml version="1.0" encoding="utf-8"?>
<!-- Generator: Adobe Illustrator 17.0.0, SVG Export Plug-In . SVG Version: 6.00 Build 0)  -->
<!DOCTYPE svg PUBLIC "-//W3C//DTD SVG 1.1//EN" "http://www.w3.org/Graphics/SVG/1.1/DTD/svg11.dtd">
<svg version="1.1" id="Layer_1" xmlns="http://www.w3.org/2000/svg" xmlns:xlink="http://www.w3.org/1999/xlink" x="0px" y="0px"
	 width="35px" height="35px" viewBox="0 0 35 35" enable-background="new 0 0 35 35" xml:space="preserve">
<g>
	<path fill="#E1E1E1" d="M35.08,17.593c0,5.699-0.004,11.398,0.009,17.097c0.001,0.334-0.066,0.399-0.399,0.399
		c-11.43-0.011-22.861-0.011-34.291,0C0.065,35.089,0,35.024,0,34.69C0.011,23.26,0.011,11.829,0,0.399C0,0.065,0.065,0,0.399,0
		C11.829,0.011,23.26,0.011,34.69,0c0.334,0,0.4,0.065,0.399,0.399C35.076,6.13,35.08,11.862,35.08,17.593z"/>
	<path fill="#A3A3A2" d="M17.376,29.945c-2.997-0.004-5.751-1.072-8.118-3.177c-0.671-0.597-1.214-1.297-1.787-1.979
		c-0.359-0.428-0.357-0.819-0.166-1.292c0.437-1.085,1.289-1.771,2.249-2.34c1.811-1.073,3.798-1.628,5.861-1.965
		c3.204-0.523,6.217,0.164,9.127,1.437c1.087,0.475,2.097,1.106,2.815,2.099c0.095,0.131,0.194,0.262,0.268,0.405
		c0.322,0.623,0.401,1.157-0.11,1.811c-2.116,2.709-4.816,4.37-8.222,4.892C18.71,29.926,18.13,29.902,17.376,29.945z"/>
	<path fill="#A3A3A2" d="M22.815,10.418c0.111,2.791-2.374,5.3-5.27,5.3c-2.897,0-5.293-2.511-5.295-5.3
		c-0.002-2.851,2.471-5.289,5.295-5.289C20.366,5.13,22.927,7.565,22.815,10.418z"/>
</g>
</svg>
