<?xml version="1.0" encoding="utf-8"?>
<!-- Generator: Adobe Illustrator 17.0.0, SVG Export Plug-In . SVG Version: 6.00 Build 0)  -->
<!DOCTYPE svg PUBLIC "-//W3C//DTD SVG 1.1//EN" "http://www.w3.org/Graphics/SVG/1.1/DTD/svg11.dtd">
<svg version="1.1" id="Layer_1" xmlns="http://www.w3.org/2000/svg" xmlns:xlink="http://www.w3.org/1999/xlink" x="0px" y="0px"
	 width="121px" height="35px" viewBox="0 0 121 35" enable-background="new 0 0 121 35" xml:space="preserve">
<g>
	<path fill="#2A4171" d="M39.337,9.955v12.315h4.826V24.6H36.4V9.955H39.337z"/>
	<path fill="#2A4171" d="M50.587,12.788c1.867,0,3.147,0.881,3.839,1.846v-1.658h2.958V24.6h-2.958V22.9
		c-0.692,1.007-2.014,1.888-3.86,1.888c-2.938,0-5.287-2.412-5.287-6.042S47.628,12.788,50.587,12.788z M51.342,15.368
		c-1.574,0-3.063,1.175-3.063,3.378s1.49,3.462,3.063,3.462c1.616,0,3.084-1.217,3.084-3.42S52.958,15.368,51.342,15.368z"/>
	<path fill="#2A4171" d="M67.041,12.788c2.979,0,5.308,2.329,5.308,5.958s-2.328,6.042-5.308,6.042c-1.825,0-3.126-0.839-3.84-1.846
		V24.6h-2.938V9.074h2.938v5.602C63.915,13.605,65.278,12.788,67.041,12.788z M66.265,15.368c-1.573,0-3.063,1.217-3.063,3.42
		s1.49,3.42,3.063,3.42c1.595,0,3.084-1.259,3.084-3.462S67.859,15.368,66.265,15.368z"/>
	<path d="M79.551,12.913c2.854,0,4.721,1.469,5.309,3.882h-2.057c-0.398-1.385-1.553-2.266-3.252-2.266
		c-2.098,0-3.65,1.49-3.65,4.301c0,2.854,1.553,4.343,3.65,4.343c1.699,0,2.833-0.818,3.252-2.266h2.057
		c-0.588,2.287-2.455,3.881-5.309,3.881c-3.272,0-5.602-2.308-5.602-5.958C73.949,15.221,76.278,12.913,79.551,12.913z"/>
	<path d="M92.417,24.788c-3.252,0-5.728-2.308-5.728-5.958c0-3.63,2.56-5.917,5.812-5.917c3.273,0,5.812,2.287,5.812,5.917
		C98.313,22.48,95.69,24.788,92.417,24.788z M92.417,23.11c1.993,0,3.944-1.364,3.944-4.28c0-2.896-1.909-4.259-3.881-4.259
		c-2.015,0-3.84,1.364-3.84,4.259C88.641,21.746,90.424,23.11,92.417,23.11z"/>
	<path d="M102.744,24.6h-1.909V13.102h1.909v1.867c0.65-1.28,1.889-2.077,3.714-2.077v1.972h-0.504c-1.825,0-3.21,0.818-3.21,3.483
		V24.6z"/>
</g>
<g>
	<path fill="#2A4171" d="M0.004,28.36c0-7.24,0-14.481,0-21.721c0.059-0.091,0.016-0.192,0.029-0.288
		C0.009,5.583,0.356,4.959,0.828,4.396C1.262,3.88,1.792,3.487,2.434,3.251c0.27-0.099,0.543-0.13,0.825-0.128
		c0.096-0.013,0.198,0.03,0.29-0.029c7.24,0,14.481,0,21.721,0c0.091,0.059,0.192,0.016,0.288,0.029
		c0.769-0.023,1.393,0.324,1.955,0.796c0.517,0.434,0.909,0.964,1.145,1.606c0.099,0.27,0.13,0.543,0.128,0.825
		c0.013,0.096-0.03,0.198,0.029,0.29c0,7.24,0,14.481,0,21.721c-0.059,0.091-0.016,0.192-0.029,0.288
		c0.023,0.769-0.324,1.393-0.796,1.955c-0.434,0.517-0.964,0.909-1.606,1.145c-0.27,0.099-0.543,0.13-0.825,0.128
		c-0.096,0.013-0.198-0.03-0.29,0.029c-7.24,0-14.481,0-21.721,0c-0.091-0.059-0.192-0.016-0.288-0.029
		c-0.769,0.023-1.393-0.324-1.955-0.796c-0.517-0.434-0.909-0.964-1.145-1.606c-0.099-0.27-0.13-0.543-0.128-0.825
		C0.019,28.554,0.062,28.452,0.004,28.36z"/>
	<path fill="#FFFFFF" d="M3.251,3.141C1.677,3.27,0.179,4.768,0.05,6.342c-0.003,0.04-0.019,0.046-0.046,0.016
		c0-1.032,0.003-2.063-0.004-3.095C-0.001,3.123,0.032,3.09,0.173,3.091c1.032,0.007,2.063,0.004,3.095,0.004
		C3.297,3.122,3.292,3.138,3.251,3.141z"/>
	<path fill="#FFFFFF" d="M28.768,6.342c-0.129-1.575-1.627-3.072-3.201-3.201c-0.04-0.003-0.046-0.019-0.016-0.046
		c1.032,0,2.063,0.003,3.095-0.004c0.141-0.001,0.174,0.032,0.173,0.173c-0.007,1.032-0.004,2.063-0.004,3.095
		C28.787,6.388,28.772,6.382,28.768,6.342z"/>
	<path fill="#FFFFFF" d="M0.05,28.658c0.129,1.575,1.627,3.072,3.201,3.201c0.04,0.003,0.046,0.019,0.016,0.046
		c-1.032,0-2.063-0.003-3.095,0.004C0.032,31.91-0.001,31.877,0,31.737c0.007-1.032,0.004-2.063,0.004-3.095
		C0.031,28.612,0.047,28.618,0.05,28.658z"/>
	<path fill="#FFFFFF" d="M25.567,31.859c1.575-0.13,3.072-1.627,3.201-3.201c0.003-0.04,0.019-0.046,0.046-0.016
		c0,1.032-0.003,2.063,0.004,3.095c0.001,0.141-0.032,0.174-0.173,0.173c-1.032-0.007-2.063-0.004-3.095-0.004
		C25.522,31.878,25.527,31.862,25.567,31.859z"/>
	<path fill="#4A4747" d="M3.251,3.141c0-0.017,0.005-0.033,0.016-0.046c0.094,0,0.188,0,0.281,0C3.46,3.176,3.355,3.156,3.251,3.141
		z"/>
	<path fill="#4A4747" d="M25.551,3.095c0.011,0.013,0.017,0.029,0.016,0.046c-0.104,0.015-0.209,0.035-0.298-0.046
		C25.363,3.095,25.457,3.095,25.551,3.095z"/>
	<path fill="#4A4747" d="M0.004,6.358C0.019,6.353,0.035,6.347,0.05,6.342C0.065,6.446,0.086,6.551,0.004,6.64
		C0.004,6.546,0.004,6.452,0.004,6.358z"/>
	<path fill="#4A4747" d="M28.768,6.342c0.015,0.005,0.031,0.011,0.046,0.016c0,0.094,0,0.188,0,0.281
		C28.733,6.551,28.753,6.446,28.768,6.342z"/>
	<path fill="#4A4747" d="M0.05,28.658c-0.015-0.005-0.031-0.011-0.046-0.016c0-0.094,0-0.188,0-0.281
		C0.086,28.449,0.065,28.554,0.05,28.658z"/>
	<path fill="#4A4747" d="M28.815,28.642c-0.015,0.005-0.031,0.011-0.046,0.016c-0.015-0.104-0.035-0.209,0.046-0.298
		C28.815,28.454,28.815,28.548,28.815,28.642z"/>
	<path fill="#4A4747" d="M3.268,31.905c-0.011-0.013-0.017-0.029-0.016-0.046c0.104-0.015,0.209-0.035,0.298,0.046
		C3.455,31.905,3.361,31.905,3.268,31.905z"/>
	<path fill="#4A4747" d="M25.567,31.859c0,0.017-0.005,0.033-0.016,0.046c-0.094,0-0.188,0-0.281,0
		C25.358,31.824,25.463,31.844,25.567,31.859z"/>
	<path fill="#FFFFFF" d="M19.571,15.782c-0.017,1.379-0.332,2.586-1.034,3.675c-0.143,0.221-0.111,0.332,0.066,0.507
		c1.307,1.291,2.605,2.592,3.901,3.894c0.548,0.55,0.558,1.286,0.037,1.756c-0.4,0.361-1.016,0.393-1.447,0.07
		c-0.104-0.078-0.2-0.169-0.293-0.262c-1.28-1.278-2.564-2.554-3.833-3.842c-0.169-0.171-0.266-0.161-0.452-0.038
		c-3.78,2.51-8.968,0.614-10.248-3.739c-1.055-3.59,0.977-7.367,4.584-8.428c3.898-1.146,7.792,1.291,8.576,5.132
		C19.52,14.959,19.539,15.416,19.571,15.782z"/>
	<path fill="#2A4171" d="M8.301,15.841c0.069-2.519,2.081-4.487,4.518-4.443c2.523,0.045,4.48,2.062,4.441,4.544
		c-0.039,2.497-2.105,4.485-4.542,4.418C10.176,20.29,8.304,18.274,8.301,15.841z"/>
</g>
</svg>
