<?xml version="1.0" encoding="utf-8"?>
<!-- Generator: Adobe Illustrator 17.0.0, SVG Export Plug-In . SVG Version: 6.00 Build 0)  -->
<!DOCTYPE svg PUBLIC "-//W3C//DTD SVG 1.1//EN" "http://www.w3.org/Graphics/SVG/1.1/DTD/svg11.dtd">
<svg version="1.1" id="Layer_1" xmlns="http://www.w3.org/2000/svg" xmlns:xlink="http://www.w3.org/1999/xlink" x="0px" y="0px"
	 width="100px" height="100px" viewBox="0 0 100 100" enable-background="new 0 0 100 100" xml:space="preserve">
<g>
	<path fill="#2A4171" d="M4.682,84.165c0-22.777,0-45.554,0-68.331c0.184-0.286,0.049-0.605,0.091-0.906
		C4.7,12.51,5.791,10.547,7.276,8.777c1.365-1.625,3.031-2.861,5.052-3.603c0.85-0.312,1.709-0.408,2.595-0.402
		c0.303-0.042,0.623,0.094,0.911-0.091c22.777,0,45.554,0,68.331,0c0.286,0.184,0.605,0.049,0.906,0.091
		c2.419-0.073,4.382,1.018,6.152,2.503c1.625,1.365,2.861,3.031,3.603,5.052c0.312,0.85,0.408,1.709,0.402,2.595
		c0.042,0.303-0.094,0.623,0.091,0.911c0,22.777,0,45.554,0,68.331c-0.184,0.286-0.049,0.605-0.091,0.906
		c0.073,2.419-1.018,4.382-2.503,6.152c-1.365,1.625-3.031,2.861-5.052,3.603c-0.85,0.312-1.709,0.408-2.595,0.402
		c-0.303,0.042-0.623-0.094-0.911,0.091c-22.777,0-45.554,0-68.331,0c-0.286-0.184-0.605-0.049-0.906-0.091
		c-2.419,0.073-4.382-1.018-6.152-2.503c-1.625-1.365-2.861-3.031-3.603-5.052c-0.312-0.85-0.408-1.709-0.402-2.595
		C4.731,84.774,4.866,84.454,4.682,84.165z"/>
	<path fill="#FFFFFF" d="M14.899,4.828C9.945,5.235,5.235,9.945,4.828,14.898c-0.01,0.127-0.059,0.144-0.146,0.051
		c0-3.245,0.01-6.491-0.012-9.736C4.667,4.77,4.77,4.667,5.213,4.67c3.245,0.022,6.491,0.012,9.736,0.012
		C15.042,4.769,15.025,4.817,14.899,4.828z"/>
	<path fill="#FFFFFF" d="M95.172,14.898c-0.407-4.953-5.117-9.663-10.07-10.071c-0.126-0.01-0.144-0.059-0.051-0.146
		c3.245,0,6.491,0.01,9.736-0.012c0.443-0.003,0.546,0.1,0.543,0.543c-0.022,3.245-0.012,6.491-0.012,9.736
		C95.231,15.042,95.182,15.025,95.172,14.898z"/>
	<path fill="#FFFFFF" d="M4.828,85.102c0.407,4.953,5.117,9.664,10.07,10.071c0.126,0.01,0.144,0.059,0.051,0.146
		c-3.245,0-6.491-0.01-9.736,0.012c-0.443,0.003-0.546-0.1-0.543-0.543c0.022-3.245,0.012-6.491,0.012-9.736
		C4.769,84.958,4.818,84.975,4.828,85.102z"/>
	<path fill="#FFFFFF" d="M85.101,95.172c4.954-0.407,9.664-5.118,10.071-10.07c0.01-0.127,0.059-0.144,0.146-0.051
		c0,3.245-0.01,6.491,0.012,9.736c0.003,0.443-0.1,0.546-0.543,0.543c-3.245-0.022-6.491-0.012-9.736-0.012
		C84.958,95.231,84.975,95.182,85.101,95.172z"/>
	<path fill="#4A4747" d="M14.899,4.828c-0.001-0.055,0.015-0.103,0.051-0.146c0.295,0,0.59,0,0.885,0
		C15.555,4.939,15.226,4.875,14.899,4.828z"/>
	<path fill="#4A4747" d="M85.05,4.682c0.035,0.042,0.052,0.091,0.051,0.146c-0.327,0.047-0.657,0.112-0.936-0.146
		C84.46,4.682,84.755,4.682,85.05,4.682z"/>
	<path fill="#4A4747" d="M4.682,14.95c0.049-0.017,0.097-0.034,0.146-0.051c0.047,0.327,0.112,0.657-0.146,0.937
		C4.682,15.54,4.682,15.245,4.682,14.95z"/>
	<path fill="#4A4747" d="M95.172,14.898c0.049,0.017,0.097,0.034,0.146,0.051c0,0.295,0,0.59,0,0.885
		C95.061,15.555,95.125,15.225,95.172,14.898z"/>
	<path fill="#4A4747" d="M4.828,85.102c-0.049-0.017-0.097-0.034-0.146-0.051c0-0.295,0-0.59,0-0.885
		C4.939,84.445,4.875,84.775,4.828,85.102z"/>
	<path fill="#4A4747" d="M95.318,85.05c-0.049,0.017-0.097,0.034-0.146,0.051c-0.047-0.327-0.112-0.657,0.146-0.937
		C95.318,84.46,95.318,84.755,95.318,85.05z"/>
	<path fill="#4A4747" d="M14.95,95.318c-0.035-0.042-0.052-0.091-0.051-0.146c0.327-0.047,0.657-0.112,0.936,0.146
		C15.54,95.318,15.245,95.318,14.95,95.318z"/>
	<path fill="#4A4747" d="M85.101,95.172c0.001,0.055-0.016,0.103-0.051,0.146c-0.295,0-0.59,0-0.885,0
		C84.445,95.061,84.774,95.125,85.101,95.172z"/>
	<path fill="#FFFFFF" d="M66.238,44.596c-0.053,4.338-1.044,8.136-3.252,11.56c-0.449,0.695-0.349,1.044,0.207,1.594
		c4.113,4.061,8.194,8.154,12.273,12.25c1.723,1.73,1.756,4.044,0.116,5.524c-1.259,1.136-3.196,1.236-4.552,0.219
		c-0.328-0.246-0.629-0.533-0.921-0.824c-4.028-4.021-8.065-8.033-12.059-12.087c-0.531-0.539-0.837-0.507-1.421-0.118
		c-11.89,7.897-28.213,1.932-32.24-11.763c-3.32-11.292,3.073-23.176,14.42-26.512c12.264-3.606,24.512,4.062,26.978,16.146
		C66.077,42.006,66.138,43.442,66.238,44.596z"/>
	<path fill="#2A4171" d="M30.786,44.78c0.216-7.923,6.547-14.115,14.212-13.979c7.936,0.141,14.094,6.487,13.971,14.293
		c-0.124,7.855-6.621,14.109-14.287,13.9C36.681,58.776,30.793,52.435,30.786,44.78z"/>
</g>
</svg>
